<svg class="starred" width="20px" height="20px" viewBox="0 0 20 20" version="1.1" xmlns="http://www.w3.org/2000/svg" xmlns:xlink="http://www.w3.org/1999/xlink"> <g id="Web-svgs" stroke="none" stroke-width="1" fill-rule="evenodd"> <g id="starred"> <g id="Rectangle-3-+-A" transform="translate(1.000000, 0.000000)"> <path d="M3.74,18 C3.64,18 3.54,17.96 3.46,17.9 C3.28,17.76 3.2,17.54 3.28,17.34 L5.16,11.5 L0.2,7.9 C0.04,7.78 -0.04,7.56 0.02,7.34 C0.1,7.14 0.28,7 0.5,7 L6.64,7 L8.52,1.16 C8.66,0.76 9.34,0.76 9.48,1.16 L11.38,7 L17.5,7 C17.72,7 17.9,7.14 17.98,7.34 C18.04,7.56 17.96,7.78 17.8,7.9 L12.84,11.5 L14.72,17.34 C14.8,17.54 14.72,17.76 14.54,17.9 C14.38,18.02 14.14,18.02 13.96,17.9 L9,14.3 L4.04,17.9 C3.96,17.96 3.84,18 3.74,18 L3.74,18 Z M9,13.18 C9.1,13.18 9.2,13.2 9.3,13.28 L13.3,16.18 L11.78,11.46 C11.7,11.26 11.78,11.04 11.96,10.92 L15.96,8 L11,8 C10.8,8 10.6,7.86 10.54,7.66 L9,2.94 L7.46,7.66 C7.4,7.86 7.22,8 7,8 L2.04,8 L6.04,10.92 C6.22,11.04 6.3,11.26 6.22,11.46 L4.7,16.18 L8.7,13.28 C8.8,13.2 8.9,13.18 9,13.18 L9,13.18 Z" id="C"/> <path d="M3.74,18 C3.64,18 3.54,17.96 3.46,17.9 C3.28,17.76 3.2,17.54 3.28,17.34 L5.16,11.5 L0.2,7.9 C0.04,7.78 -0.04,7.56 0.02,7.34 C0.1,7.14 0.28,7 0.5,7 L6.64,7 L8.52,1.16 C8.66,0.76 9.34,0.76 9.48,1.16 L11.38,7 L17.5,7 C17.72,7 17.9,7.14 17.98,7.34 C18.04,7.56 17.96,7.78 17.8,7.9 L12.84,11.5 L14.72,17.34 C14.8,17.54 14.72,17.76 14.54,17.9 C14.38,18.02 14.14,18.02 13.96,17.9 L9,14.3 L4.04,17.9 C3.96,17.96 3.84,18 3.74,18 L3.74,18 Z" id="D" opacity="0.06"> </path> </g> </g> </g> </svg>