<svg class="folders rtl-flip" width="20px" height="20px" viewBox="0 0 20 20" version="1.1" xmlns="http://www.w3.org/2000/svg" xmlns:xlink="http://www.w3.org/1999/xlink"> <g id="Web-svgs" stroke="none" stroke-width="1" fill-rule="evenodd"> <g id="folders"> <g id="Path-2-+-c-2" transform="translate(2.000000, 2.000000)"> <path d="M0.5,16 C0.22,16 -1.34760666e-14,15.82 -1.34760666e-14,15.5909091 L-1.42108547e-14,8.22727273 C-1.42108547e-14,7.55636364 0.68,7 1.5,7 L14.5,7 C15.32,7 16,7.55636364 16,8.22727273 L16,15.5909091 C16,15.82 15.78,16 15.5,16 L0.5,16 Z" id="Path-2" fill-opacity="0.06" transform="translate(8.000000, 11.500000) rotate(-180.000000) translate(-8.000000, -11.500000) "/> <path d="M0.5,12 C0.22,12 -1.34760666e-14,11.78 -1.34760666e-14,11.5 L-1.42108547e-14,2.5 C-1.42108547e-14,1.68 0.68,1 1.5,1 L14.5,1 C15.32,1 16,1.68 16,2.5 L16,11.5 C16,11.78 15.78,12 15.5,12 L0.5,12 Z M1,11 L15,11 L15,2.5 C15,2.22 14.78,2 14.5,2 L1.5,2 C1.22,2 1,2.22 1,2.5 L1,11 Z M9.5,16 C8.68,16 8,15.32 8,14.5 L8,13.5 C8,13.22 8.22,13 8.5,13 C8.78,13 9,13.22 9,13.5 L9,14.5 C9,14.78 9.22,15 9.5,15 L14.5,15 C14.78,15 15,14.78 15,14.5 L15,13.5 C15,13.22 15.22,13 15.5,13 C15.78,13 16,13.22 16,13.5 L16,14.5 C16,15.32 15.32,16 14.5,16 L9.5,16 Z" id="c-2" transform="translate(8.000000, 8.500000) rotate(-180.000000) translate(-8.000000, -8.500000) "/> </g> </g> </g> </svg>