<svg class="search rtl-flip" width="20px" height="20px" viewBox="0 0 20 20" version="1.1" xmlns="http://www.w3.org/2000/svg" xmlns:xlink="http://www.w3.org/1999/xlink"> <g stroke="none" stroke-width="1" fill-rule="evenodd"> <g> <path d="M8.5025,15 C4.9225,15 2.0025,12.08 2.0025,8.5 C2.0025,4.92 4.9225,2 8.5025,2 C12.0825,2 15.0025,4.92 15.0025,8.5 C15.0025,12.08 12.0825,15 8.5025,15 L8.5025,15 Z M8.5025,3 C5.4625,3 3.0025,5.46 3.0025,8.5 C3.0025,11.54 5.4625,14 8.5025,14 C11.5425,14 14.0025,11.54 14.0025,8.5 C14.0025,5.46 11.5425,3 8.5025,3 L8.5025,3 Z M17.5025,18 C17.3825,18 17.2425,17.96 17.1425,17.86 L13.6425,14.36 C13.4625,14.16 13.4625,13.84 13.6425,13.64 C13.8425,13.46 14.1625,13.46 14.3625,13.64 L17.8625,17.14 C18.0425,17.34 18.0425,17.66 17.8625,17.86 C17.7625,17.96 17.6225,18 17.5025,18 L17.5025,18 Z" id="z"/> </g> </g> </svg>