<svg class="sort-az" width="20px" height="20px" viewBox="0 0 20 20" version="1.1" xmlns="http://www.w3.org/2000/svg" xmlns:xlink="http://www.w3.org/1999/xlink" aria-disabled="false"> <g stroke="none" stroke-width="1" fill-rule="evenodd"> <g id="sort-az"> <path d="M14.2,2.3 C14.12,2.12 13.94,2 13.76,2 L13.26,2 C13.06,2 12.88,2.12 12.8,2.3 L10.04,8.3 C9.94,8.54 10.04,8.84 10.3,8.96 C10.54,9.08 10.84,8.96 10.96,8.7 L11.74,7 L15.26,7 L16.04,8.7 C16.14,8.9 16.32,9 16.5,9 C16.58,9 16.64,8.98 16.7,8.96 C16.96,8.84 17.06,8.54 16.96,8.3 L14.2,2.3 Z M5.64,3.02 C5.56,3 5.48,3 5.4,3 C5.3,3.02 5.22,3.08 5.14,3.16 L3.14,5.14 C2.96,5.34 2.96,5.66 3.14,5.86 C3.34,6.04 3.66,6.04 3.86,5.86 L5,4.7 L5,8.5 C5,8.78 5.22,9 5.5,9 C5.78,9 6,8.78 6,8.5 L6,4.7 L7.14,5.86 C7.24,5.96 7.38,6 7.5,6 C7.62,6 7.76,5.96 7.86,5.86 C8.04,5.66 8.04,5.34 7.86,5.14 C5.68,2.98 5.8,3.08 5.64,3.02 L5.64,3.02 Z M14.8,6 L12.2,6 L13.5,3.16 L14.8,6 Z M6,15.3 L6,11.5 C6,11.22 5.78,11 5.5,11 C5.22,11 5,11.22 5,11.5 L5,15.3 L3.86,14.14 C3.66,13.96 3.34,13.96 3.14,14.14 C2.96,14.34 2.96,14.66 3.14,14.86 C5.28,17 5.2,16.96 5.4,17 C5.56,17.02 5.74,16.98 5.86,16.84 L7.86,14.86 C8.04,14.66 8.04,14.34 7.86,14.14 C7.66,13.96 7.34,13.96 7.14,14.14 L6,15.3 Z M15.94,11.26 C15.86,11.1 15.68,11 15.5,11 L11.5,11 C11.22,11 11,11.22 11,11.5 C11,11.78 11.22,12 11.5,12 L14.56,12 L11.08,17.22 C10.98,17.38 10.98,17.58 11.06,17.74 C11.14,17.9 11.32,18 11.5,18 L15.5,18 C15.78,18 16,17.78 16,17.5 C16,17.22 15.78,17 15.5,17 L12.44,17 L15.92,11.78 C16.02,11.62 16.02,11.42 15.94,11.26 L15.94,11.26 Z" id="sort"/> </g> </g> </svg>